<?xml version="1.0" encoding="UTF-8" standalone="no"?>
<!-- Created with Inkscape (http://www.inkscape.org/) -->

<svg
   version="1.1"
   id="svg2"
   width="113.38667"
   height="46.093334"
   viewBox="0 0 113.38667 46.093334"
   sodipodi:docname="upsa.eps"
   xmlns:inkscape="http://www.inkscape.org/namespaces/inkscape"
   xmlns:sodipodi="http://sodipodi.sourceforge.net/DTD/sodipodi-0.dtd"
   xmlns="http://www.w3.org/2000/svg"
   xmlns:svg="http://www.w3.org/2000/svg">
  <defs
     id="defs6" />
  <sodipodi:namedview
     id="namedview4"
     pagecolor="#ffffff"
     bordercolor="#000000"
     borderopacity="0.25"
     inkscape:showpageshadow="2"
     inkscape:pageopacity="0.0"
     inkscape:pagecheckerboard="0"
     inkscape:deskcolor="#d1d1d1" />
  <g
     id="g8"
     inkscape:groupmode="layer"
     inkscape:label="ink_ext_XXXXXX"
     transform="matrix(1.3333333,0,0,-1.3333333,0,46.093333)">
    <g
       id="g10"
       transform="scale(0.1)">
      <path
         d="m 346.648,253.617 c 0,-11.512 8.528,-18.812 21.786,-18.812 15.519,0 22.609,7.711 22.609,23.851 v 43.989 h 7.914 v 2.363 h -18.605 v -2.363 h 7.918 v -40.809 c 0,-13.051 -1.954,-23.637 -17.368,-23.637 -12.437,0 -14.285,11.098 -14.285,13.465 v 50.981 h 8.016 v 2.363 H 338.73 v -2.363 h 7.918 v -49.028"
         style="fill:#3b454b;fill-opacity:1;fill-rule:evenodd;stroke:none"
         id="path12" />
      <path
         d="m 667.859,276.023 c 9.45,0 11.711,-9.25 12.121,-10.793 0.618,-2.054 0.723,-6.785 0.723,-9.042 0,-10.692 -1.34,-12.747 -5.242,-16.243 -1.34,-1.129 -4.418,-2.773 -7.094,-2.773 -8.426,0 -10.379,5.238 -10.379,21.07 0,7.297 0.309,17.781 9.871,17.781 z m -1.132,-41.011 c 5.851,0 10.582,2.468 13.461,7.398 h 0.203 v -6.883 c 4.519,0.719 9.043,0.821 13.566,0.821 v 2.363 h -5.648 v 66.523 c -3.704,-0.718 -7.711,-0.921 -11.512,-0.921 h -3.391 v -2.368 h 6.883 V 270.27 h -0.203 c -3.082,6.265 -9.043,7.812 -12.336,7.812 -12.227,0 -19.117,-9.871 -19.117,-21.387 0,-11.711 7.711,-21.683 18.094,-21.683 v 0"
         style="fill:#3b454b;fill-opacity:1;fill-rule:evenodd;stroke:none"
         id="path14" />
      <path
         d="m 723.797,248.27 c 0,-4.317 -1.442,-5.446 -2.262,-6.27 -2.469,-2.16 -4.625,-2.98 -7.914,-2.98 -4.726,0 -7.914,3.085 -7.914,8.117 0,9.461 11.41,10.59 18.09,10.691 z m -25.801,-3.188 c 0,-7.602 5.555,-10.07 12.027,-10.07 5.243,0 10.379,1.949 13.875,6.269 0.719,-3.801 2.875,-6.269 6.68,-6.269 4.727,0 8.426,3.597 8.735,8.429 h -1.747 c -0.515,-1.75 -1.543,-4.625 -3.597,-4.625 -2.16,0 -2.16,1.641 -2.16,4.727 v 24.461 c 0,4.113 0,10.078 -13.977,10.078 -12.227,0 -16.445,-6.172 -16.445,-9.871 0,-2.879 1.547,-4.934 4.32,-4.934 2.566,0 4.215,1.746 4.215,4.321 0,3.386 -3.082,3.902 -3.082,4.722 0,2.981 7.297,3.703 9.555,3.703 3.597,0 7.402,-1.441 7.402,-6.269 v -9.766 c -15.727,0 -25.488,-5.343 -25.801,-14.906 v 0"
         style="fill:#3b454b;fill-opacity:1;fill-rule:evenodd;stroke:none"
         id="path16" />
      <path
         d="m 760.504,276.023 c 9.457,0 11.715,-9.25 12.129,-10.793 0.617,-2.054 0.719,-6.785 0.719,-9.042 0,-10.692 -1.332,-12.747 -5.239,-16.243 -1.343,-1.129 -4.422,-2.773 -7.097,-2.773 -8.426,0 -10.379,5.238 -10.379,21.07 0,7.297 0.312,17.781 9.867,17.781 z m -1.129,-41.011 c 5.859,0 10.586,2.468 13.465,7.398 h 0.207 v -6.883 c 4.519,0.719 9.035,0.821 13.562,0.821 v 2.363 h -5.652 v 66.523 c -3.699,-0.718 -7.707,-0.921 -11.512,-0.921 h -3.39 v -2.368 h 6.883 V 270.27 h -0.204 c -3.082,6.265 -9.043,7.812 -12.332,7.812 -12.23,0 -19.113,-9.871 -19.113,-21.387 0,-11.711 7.703,-21.683 18.086,-21.683 v 0"
         style="fill:#3b454b;fill-opacity:1;fill-rule:evenodd;stroke:none"
         id="path18" />
      <path
         d="m 398.895,274.688 h 5.652 v -35.977 h -5.652 v -2.363 h 19.218 v 2.363 h -5.55 v 19.117 c 0,7.711 5.347,17.27 12.332,17.27 4.113,0 6.472,-1.129 6.472,-8.633 v -27.754 h -5.34 v -2.363 h 44.754 v 2.363 h -6.062 v 39.371 c -3.703,-0.934 -7.711,-1.031 -11.512,-1.031 h -3.391 v -2.363 h 6.883 v -35.977 h -17.312 v 29.09 c 0,9.453 -8.532,10.281 -12.231,10.281 -7.5,0 -11.511,-4.422 -14.386,-10.898 h -0.207 v 10.898 c -1.852,-0.414 -3.801,-0.723 -5.754,-0.828 -1.848,-0.203 -3.801,-0.203 -5.754,-0.203 h -2.16 v -2.363"
         style="fill:#3b454b;fill-opacity:1;fill-rule:evenodd;stroke:none"
         id="path20" />
      <path
         d="m 460.605,292.664 c 2.981,0 5.243,2.258 5.243,5.445 0,2.672 -2.778,4.934 -5.243,4.934 -2.57,0 -4.933,-2.262 -4.933,-4.934 0,-2.98 1.953,-5.445 4.933,-5.445"
         style="fill:#3b454b;fill-opacity:1;fill-rule:evenodd;stroke:none"
         id="path22" />
      <path
         d="m 489.496,235.012 h 3.492 l 14.188,39.676 h 4.926 v 2.363 h -13.977 v -2.363 h 6.273 l -10.378,-29.5 h -0.207 l -9.973,29.5 h 5.449 v 2.363 h -18.496 v -2.363 h 4.934 l 13.769,-39.676"
         style="fill:#3b454b;fill-opacity:1;fill-rule:evenodd;stroke:none"
         id="path24" />
      <path
         d="m 521.418,269.547 c 0.207,0.723 2.984,6.476 9.148,6.476 5.137,0 9.454,-2.363 9.454,-9.765 v -3.496 h -19.629 c 0.105,2.57 0.41,4.933 1.027,6.785 z m 27.852,-20.453 h -2.262 c -1.438,-6.785 -8.324,-11.922 -14.184,-11.922 -11.199,0 -12.535,8.219 -12.535,18.398 v 4.211 h 29.086 c -0.105,11.203 -8.016,18.301 -18.504,18.301 -12.226,0 -20.242,-11.105 -20.242,-23.234 0,-11.407 10.074,-19.836 20.555,-19.836 9.043,0 16.031,4.519 18.086,14.082 v 0"
         style="fill:#3b454b;fill-opacity:1;fill-rule:evenodd;stroke:none"
         id="path26" />
      <path
         d="m 574.938,238.711 h -7.915 v 19.531 c 0,4.11 1.133,8.117 2.575,11.098 2.257,4.629 5.754,6.066 5.855,6.066 0.309,0 0.926,0 0.926,-0.617 0,-0.41 -0.414,-1.336 -0.414,-2.156 0,-2.059 2.16,-4.113 4.008,-4.113 2.16,0 4.832,1.234 4.832,3.8 0,3.907 -2.774,5.762 -6.27,5.762 -5.652,0 -9.765,-5.039 -11.613,-9.664 h -0.203 v 9.664 c -3.699,-0.934 -7.707,-1.031 -11.512,-1.031 h -3.184 v -2.363 h 6.989 v -35.977 h -6.989 v -2.363 h 22.915 v 2.363"
         style="fill:#3b454b;fill-opacity:1;fill-rule:evenodd;stroke:none"
         id="path28" />
      <path
         d="m 593.398,240.047 c 2.981,-3.289 7.5,-5.035 11.817,-5.035 8.121,0 14.801,5.242 14.801,14.082 0,6.476 -2.774,10.074 -10.688,11.715 -15.726,3.187 -16.547,4.73 -16.547,7.711 0,1.234 1.235,7.707 9.66,7.503 6.164,-0.308 9.661,-4.523 11.204,-10.484 h 2.261 v 11.512 h -1.746 l -1.847,-2.778 c -3.192,2.571 -6.379,3.809 -9.567,3.809 -11.195,0 -13.871,-8.328 -13.871,-12.644 0,-8.946 5.961,-9.868 12.746,-11.512 8.527,-2.16 14.18,-4.008 14.18,-8.02 0,-5.343 -5.344,-8.84 -9.969,-8.84 -7.602,0 -12.641,5.45 -14.59,12.852 h -2.367 v -13.57 h 2.262 l 2.261,3.699"
         style="fill:#3b454b;fill-opacity:1;fill-rule:evenodd;stroke:none"
         id="path30" />
      <path
         d="m 645.215,238.711 h -6.067 v 39.371 c -3.699,-0.934 -7.71,-1.031 -11.511,-1.031 h -3.391 v -2.363 h 6.887 v -35.977 h -6.887 v -2.363 h 20.969 v 2.363"
         style="fill:#3b454b;fill-opacity:1;fill-rule:evenodd;stroke:none"
         id="path32" />
      <path
         d="m 635.035,292.664 c 2.981,0 5.246,2.258 5.246,5.445 0,2.672 -2.777,4.934 -5.246,4.934 -2.566,0 -4.93,-2.262 -4.93,-4.934 0,-2.98 1.954,-5.445 4.93,-5.445"
         style="fill:#3b454b;fill-opacity:1;fill-rule:evenodd;stroke:none"
         id="path34" />
      <path
         d="m 361.223,45.6367 c -1.332,-1.1289 -4.418,-2.7734 -7.09,-2.7734 -8.426,0 -10.379,5.2422 -10.379,21.0703 0,7.3008 0.309,17.7812 9.867,17.7812 9.453,0 11.715,-9.2539 12.129,-10.7929 0.617,-2.0547 0.715,-6.7852 0.715,-9.0469 0,-10.6875 -1.332,-12.7422 -5.242,-16.2383 z M 374.07,110.926 C 370.371,110.207 366.367,110 362.559,110 h -3.387 v -2.359 h 6.883 V 75.957 h -0.203 c -3.086,6.2696 -9.047,7.8164 -12.336,7.8164 -12.227,0 -19.114,-9.8711 -19.114,-21.3828 0,-11.7187 7.707,-21.6875 18.086,-21.6875 5.864,0 10.586,2.4688 13.465,7.4024 h 0.207 v -6.8867 c 4.524,0.7187 9.043,0.8203 13.563,0.8203 v 2.3632 h -5.653 v 66.5237 0"
         style="fill:#3b454b;fill-opacity:1;fill-rule:evenodd;stroke:none"
         id="path36" />
      <path
         d="m 392.828,75.2422 c 0.207,0.7148 2.981,6.4726 9.145,6.4726 5.144,0 9.461,-2.3632 9.461,-9.7656 v -3.4961 h -19.629 c 0.097,2.5703 0.406,4.9336 1.023,6.7891 z m 27.957,-9.7695 c -0.105,11.207 -8.019,18.3007 -18.5,18.3007 -12.23,0 -20.246,-11.1015 -20.246,-23.2304 0,-11.4102 10.07,-19.8399 20.551,-19.8399 9.047,0 16.035,4.5235 18.09,14.086 h -2.262 C 416.984,48 410.094,42.8633 404.238,42.8633 c -11.203,0 -12.543,8.2226 -12.543,18.3945 v 4.2149 h 29.09 v 0"
         style="fill:#3b454b;fill-opacity:1;fill-rule:evenodd;stroke:none"
         id="path38" />
      <path
         d="m 445.703,97.3398 c 0,7.7072 7.602,12.5392 14.59,12.5392 9.148,0 15.215,-6.684 17.473,-15.2149 h 2.054 v 16.0349 h -1.441 l -3.899,-2.976 c -2.058,1.539 -8.738,4.515 -13.464,4.515 -7.813,0 -12.852,-3.285 -15.93,-7.293 -2.984,-3.906 -4.215,-7.5075 -4.215,-11.7184 0,-5.7578 2.363,-12.0274 8.324,-15.7266 1.539,-1.0273 17.469,-6.2656 21.27,-7.707 7.914,-3.1875 9.355,-5.9649 9.355,-12.0274 0,-9.0468 -8.425,-14.9023 -17.265,-14.9023 -9.969,0 -17.059,7.1953 -19.832,16.5469 H 440.77 V 41.7305 h 1.437 l 4.422,4.5195 c 4.211,-4.2109 9.965,-5.7539 15.723,-5.7539 13.461,0 22.3,8.7383 22.3,22.8203 0,27.957 -38.949,16.957 -38.949,34.0234"
         style="fill:#3b454b;fill-opacity:1;fill-rule:evenodd;stroke:none"
         id="path40" />
      <path
         d="m 514.395,53.9609 c 0,-4.3164 -1.442,-5.4453 -2.262,-6.2695 -2.465,-2.1562 -4.625,-2.9805 -7.914,-2.9805 -4.727,0 -7.91,3.086 -7.91,8.125 0,9.4532 11.406,10.5821 18.086,10.6875 z m 10.175,-9.4531 c -2.16,0 -2.16,1.6445 -2.16,4.7266 v 24.4609 c 0,4.1133 0,10.0781 -13.976,10.0781 -12.231,0 -16.442,-6.1679 -16.442,-9.8711 0,-2.8789 1.543,-4.9335 4.317,-4.9335 2.566,0 4.211,1.746 4.211,4.3203 0,3.3906 -3.086,3.9023 -3.086,4.7226 0,2.9805 7.3,3.7031 9.562,3.7031 3.594,0 7.399,-1.4414 7.399,-6.2695 v -9.7656 c -15.727,0 -25.489,-5.3438 -25.793,-14.9024 0,-7.6054 5.546,-10.0742 12.019,-10.0742 5.246,0 10.379,1.9532 13.875,6.2696 0.719,-3.8008 2.875,-6.2696 6.684,-6.2696 4.722,0 8.422,3.5938 8.734,8.4297 h -1.75 c -0.516,-1.75 -1.539,-4.625 -3.594,-4.625 v 0"
         style="fill:#3b454b;fill-opacity:1;fill-rule:evenodd;stroke:none"
         id="path42" />
      <path
         d="M 548.516,110.926 C 544.816,110.207 540.809,110 537.004,110 h -4.418 v -2.359 H 540.5 V 44.4023 h -7.914 v -2.3632 h 23.848 v 2.3632 h -7.918 v 66.5237"
         style="fill:#3b454b;fill-opacity:1;fill-rule:evenodd;stroke:none"
         id="path44" />
      <path
         d="m 585.125,53.9609 c 0,-4.3164 -1.441,-5.4453 -2.266,-6.2695 -2.461,-2.1562 -4.625,-2.9805 -7.91,-2.9805 -4.726,0 -7.914,3.086 -7.914,8.125 0,9.4532 11.41,10.5821 18.09,10.6875 z m 10.172,-9.4531 c -2.156,0 -2.156,1.6445 -2.156,4.7266 v 24.4609 c 0,4.1133 0,10.0781 -13.977,10.0781 -12.23,0 -16.445,-6.1679 -16.445,-9.8711 0,-2.8789 1.543,-4.9335 4.316,-4.9335 2.567,0 4.215,1.746 4.215,4.3203 0,3.3906 -3.086,3.9023 -3.086,4.7226 0,2.9805 7.297,3.7031 9.559,3.7031 3.597,0 7.402,-1.4414 7.402,-6.2695 v -9.7656 c -15.723,0 -25.488,-5.3438 -25.797,-14.9024 0,-7.6054 5.547,-10.0742 12.02,-10.0742 5.246,0 10.382,1.9532 13.879,6.2696 0.718,-3.8008 2.878,-6.2696 6.679,-6.2696 4.727,0 8.426,3.5938 8.735,8.4297 h -1.746 c -0.516,-1.75 -1.543,-4.625 -3.598,-4.625 v 0"
         style="fill:#3b454b;fill-opacity:1;fill-rule:evenodd;stroke:none"
         id="path46" />
      <path
         d="m 666.938,71.7422 c 0,10.5898 -7.297,12.0312 -11.098,12.0312 -6.68,0 -10.895,-4.0117 -14.184,-9.664 h -0.207 c -0.617,6.164 -5.133,9.664 -10.992,9.664 -7.508,0 -10.281,-4.0117 -13.875,-9.7695 h -0.207 v 9.7695 c -3.699,-0.9257 -7.711,-1.0312 -11.512,-1.0312 h -1.644 v -2.3633 h 5.14 V 44.4023 h -5.14 v -2.3632 h 18.91 v 2.3632 h -5.754 v 19.4258 c 0,7.8125 5.141,16.961 11.508,16.961 3.297,0 5.758,-2.3633 5.758,-7.1953 V 44.4023 h -5.446 v -2.3632 h 18.91 v 2.3632 h -5.449 v 21.586 c 0,5.6523 5.141,14.8008 11.512,14.8008 3.289,0 5.754,-2.3633 5.754,-7.1953 V 44.4023 h -5.754 v -2.3632 h 18.91 v 2.3632 h -5.14 v 27.3399"
         style="fill:#3b454b;fill-opacity:1;fill-rule:evenodd;stroke:none"
         id="path48" />
      <path
         d="m 701.316,53.9609 c 0,-4.3164 -1.441,-5.4453 -2.257,-6.2695 -2.465,-2.1562 -4.625,-2.9805 -7.914,-2.9805 -4.731,0 -7.915,3.086 -7.915,8.125 0,9.4532 11.411,10.5821 18.086,10.6875 z m 10.176,-9.4531 c -2.156,0 -2.156,1.6445 -2.156,4.7266 v 24.4609 c 0,4.1133 0,10.0781 -13.977,10.0781 -12.23,0 -16.445,-6.1679 -16.445,-9.8711 0,-2.8789 1.543,-4.9335 4.316,-4.9335 2.567,0 4.215,1.746 4.215,4.3203 0,3.3906 -3.082,3.9023 -3.082,4.7226 0,2.9805 7.297,3.7031 9.555,3.7031 3.594,0 7.398,-1.4414 7.398,-6.2695 v -9.7656 c -15.722,0 -25.488,-5.3438 -25.793,-14.9024 0,-7.6054 5.551,-10.0742 12.024,-10.0742 5.238,0 10.379,1.9532 13.875,6.2696 0.719,-3.8008 2.875,-6.2696 6.68,-6.2696 4.722,0 8.425,3.5938 8.734,8.4297 h -1.746 c -0.516,-1.75 -1.539,-4.625 -3.598,-4.625 v 0"
         style="fill:#3b454b;fill-opacity:1;fill-rule:evenodd;stroke:none"
         id="path50" />
      <path
         d="m 759.906,73.4922 c 0,9.4531 -8.527,10.2812 -12.23,10.2812 -7.5,0 -11.512,-4.4218 -14.383,-10.8984 h -0.207 v 10.8984 c -1.856,-0.414 -3.805,-0.7226 -5.754,-0.8281 -1.852,-0.2031 -3.805,-0.2031 -5.758,-0.2031 h -2.156 v -2.3633 h 5.648 V 44.4023 h -5.648 v -2.3632 h 19.215 v 2.3632 h -5.547 v 19.1211 c 0,7.711 5.344,17.2657 12.332,17.2657 4.109,0 6.473,-1.1328 6.473,-8.6328 v -27.754 h -5.344 v -2.3632 h 18.91 v 2.3632 h -5.551 v 29.0899"
         style="fill:#3b454b;fill-opacity:1;fill-rule:evenodd;stroke:none"
         id="path52" />
      <path
         d="m 788.137,42.8633 c -5.344,0.3086 -8.532,2.4648 -10.071,5.8555 -0.617,1.4414 -2.16,6.1718 -2.16,12.3359 0,13.4648 2.571,20.6601 12.438,20.6601 2.258,0 8.734,-1.1328 8.734,-3.9062 0,-1.1289 -3.289,-1.6445 -3.289,-5.6523 0,-2.9805 2.055,-4.8282 4.828,-4.8282 2.879,0 4.625,2.6719 4.625,5.4414 0,7.918 -9.453,11.0039 -16.133,11.0039 -5.859,0 -20.554,-4.4218 -20.554,-22.7187 0,-7.0938 4.828,-20.3516 20.758,-20.3516 10.687,0.4141 14.8,6.7852 17.164,14.086 h -2.161 c -2.464,-7.4063 -8.222,-12.2344 -14.179,-11.9258"
         style="fill:#3b454b;fill-opacity:1;fill-rule:evenodd;stroke:none"
         id="path54" />
      <path
         d="m 834.875,53.9609 c 0,-4.3164 -1.441,-5.4453 -2.258,-6.2695 -2.469,-2.1562 -4.625,-2.9805 -7.918,-2.9805 -4.726,0 -7.91,3.086 -7.91,8.125 0,9.4532 11.406,10.5821 18.086,10.6875 z m 13.773,-4.8281 c -0.515,-1.75 -1.543,-4.625 -3.597,-4.625 -2.16,0 -2.16,1.6445 -2.16,4.7266 v 24.4609 c 0,4.1133 0,10.0781 -13.973,10.0781 -12.23,0 -16.445,-6.1679 -16.445,-9.8711 0,-2.8789 1.543,-4.9335 4.316,-4.9335 2.566,0 4.215,1.746 4.215,4.3203 0,3.3906 -3.086,3.9023 -3.086,4.7226 0,2.9805 7.297,3.7031 9.559,3.7031 3.597,0 7.398,-1.4414 7.398,-6.2695 v -9.7656 c -15.723,0 -25.488,-5.3438 -25.793,-14.9024 0,-7.6054 5.551,-10.0742 12.02,-10.0742 5.246,0 10.382,1.9532 13.878,6.2696 0.719,-3.8008 2.879,-6.2696 6.68,-6.2696 4.727,0 8.426,3.5938 8.738,8.4297 h -1.75 v 0"
         style="fill:#3b454b;fill-opacity:1;fill-rule:evenodd;stroke:none"
         id="path56" />
      <path
         d="m 407.801,139.91 c -10.379,0 -10.481,10.899 -10.481,19.535 0,8.532 0.102,19.426 10.481,19.426 10.383,0 10.484,-10.894 10.484,-19.426 0,-8.636 -0.101,-19.535 -10.484,-19.535 z m 0,41.012 c -10.793,0 -19.832,-9.047 -19.832,-21.477 0,-12.437 9.039,-21.586 19.832,-21.586 10.793,0 19.836,9.149 19.836,21.586 0,12.43 -9.043,21.477 -19.836,21.477 v 0"
         style="fill:#3b454b;fill-opacity:1;fill-rule:evenodd;stroke:none"
         id="path58" />
      <path
         d="m 449.395,141.559 h -5.551 v 19.117 c 0,7.707 5.344,17.265 12.332,17.265 4.109,0 6.476,-1.128 6.476,-8.628 v -27.754 h -5.347 v -2.364 h 18.914 v 2.364 h -5.551 v 29.086 c 0,9.457 -8.531,10.277 -12.23,10.277 -7.5,0 -11.512,-4.418 -14.387,-10.895 h -0.207 v 10.895 c -1.852,-0.406 -3.801,-0.715 -5.754,-0.82 -1.852,-0.207 -3.805,-0.207 -5.758,-0.207 h -2.156 v -2.36 h 5.652 v -35.976 h -5.652 v -2.364 h 19.219 v 2.364"
         style="fill:#3b454b;fill-opacity:1;fill-rule:evenodd;stroke:none"
         id="path60" />
      <path
         d="m 502.234,144.129 -1.64,1.129 c -1.649,-1.953 -3.086,-3.805 -5.758,-3.805 -3.906,0 -3.906,2.777 -3.906,4.629 v 31.453 h 9.043 v 2.36 h -9.043 v 13.058 c -2.571,-0.414 -5.141,-0.414 -7.809,-0.414 v -12.644 h -6.062 v -2.36 h 5.859 v -30.734 c 0,-4.934 0.82,-8.942 8.219,-8.942 4.109,0 9.148,2.36 11.097,6.27"
         style="fill:#3b454b;fill-opacity:1;fill-rule:evenodd;stroke:none"
         id="path62" />
      <path
         d="m 506.414,179.895 v -2.36 h 6.887 v -35.976 h -6.887 v -2.364 h 20.969 v 2.364 h -6.067 v 39.363 c -3.699,-0.922 -7.707,-1.027 -11.511,-1.027 h -3.391"
         style="fill:#3b454b;fill-opacity:1;fill-rule:evenodd;stroke:none"
         id="path64" />
      <path
         d="m 522.449,200.953 c 0,2.676 -2.773,4.934 -5.242,4.934 -2.566,0 -4.934,-2.258 -4.934,-4.934 0,-2.976 1.954,-5.445 4.934,-5.445 2.981,0 5.242,2.262 5.242,5.445"
         style="fill:#3b454b;fill-opacity:1;fill-rule:evenodd;stroke:none"
         id="path66" />
      <path
         d="m 560.949,141.559 v -2.364 h 20.25 v 2.364 h -6.062 v 39.363 c -3.699,-0.922 -7.707,-1.027 -11.512,-1.027 h -15.109 v 7.402 c 0,10.484 2.16,20.969 11.308,20.969 1.746,0 5.856,-0.821 5.856,-2.262 0,-0.207 -1.95,-1.543 -1.95,-3.289 0,-2.774 1.95,-4.934 4.727,-4.934 2.055,0 4.211,2.16 4.211,4.317 0,6.269 -7.813,8.121 -12.641,8.121 -11.101,0 -19.527,-8.633 -19.527,-25.285 v -5.039 h -7.914 v -2.36 h 7.914 v -35.976 h -7.914 v -2.364 h 22.199 v 2.364 h -6.269 v 35.976 h 18.605 v -35.976 h -6.172"
         style="fill:#3b454b;fill-opacity:1;fill-rule:evenodd;stroke:none"
         id="path68" />
      <path
         d="m 610.965,169.313 c 0,-2.985 2.055,-4.833 4.828,-4.833 2.879,0 4.625,2.668 4.625,5.446 0,7.914 -9.453,10.996 -16.133,10.996 -5.859,0 -20.555,-4.418 -20.555,-22.715 0,-7.09 4.829,-20.348 20.758,-20.348 10.688,0.411 14.801,6.782 17.164,14.079 h -2.16 c -2.469,-7.399 -8.222,-12.231 -14.183,-11.922 -5.34,0.308 -8.528,2.468 -10.067,5.859 -0.617,1.438 -2.164,6.168 -2.164,12.332 0,13.465 2.574,20.664 12.438,20.664 2.261,0 8.734,-1.133 8.734,-3.91 0,-1.129 -3.285,-1.645 -3.285,-5.648"
         style="fill:#3b454b;fill-opacity:1;fill-rule:evenodd;stroke:none"
         id="path70" />
      <path
         d="m 676.242,151.117 c 0,-4.316 -1.437,-5.449 -2.258,-6.273 -2.464,-2.156 -4.625,-2.977 -7.914,-2.977 -4.726,0 -7.914,3.086 -7.914,8.121 0,9.457 11.41,10.586 18.086,10.688 z m 6.789,-13.258 c 4.723,0 8.422,3.594 8.731,8.426 h -1.746 c -0.516,-1.746 -1.539,-4.625 -3.598,-4.625 -2.152,0 -2.152,1.645 -2.152,4.731 v 24.461 c 0,4.109 0,10.07 -13.985,10.07 -12.226,0 -16.441,-6.164 -16.441,-9.867 0,-2.875 1.543,-4.934 4.316,-4.934 2.567,0 4.215,1.75 4.215,4.32 0,3.391 -3.086,3.903 -3.086,4.731 0,2.98 7.301,3.699 9.563,3.699 3.593,0 7.394,-1.441 7.394,-6.269 v -9.766 c -15.722,0 -25.484,-5.348 -25.793,-14.906 0,-7.606 5.551,-10.071 12.024,-10.071 5.242,0 10.379,1.954 13.875,6.27 0.722,-3.805 2.879,-6.27 6.683,-6.27 v 0"
         style="fill:#3b454b;fill-opacity:1;fill-rule:evenodd;stroke:none"
         id="path72" />
      <path
         d="m 640.848,200.953 c 0,2.676 -2.774,4.934 -5.239,4.934 -2.57,0 -4.933,-2.258 -4.933,-4.934 0,-2.976 1.953,-5.445 4.933,-5.445 2.981,0 5.239,2.262 5.239,5.445"
         style="fill:#3b454b;fill-opacity:1;fill-rule:evenodd;stroke:none"
         id="path74" />
      <path
         d="m 624.816,141.559 v -2.364 h 20.965 v 2.364 h -6.062 v 39.363 c -3.703,-0.922 -7.707,-1.027 -11.508,-1.027 h -3.395 v -2.36 h 6.883 v -35.976 h -6.883"
         style="fill:#3b454b;fill-opacity:1;fill-rule:evenodd;stroke:none"
         id="path76" />
      <path
         d="m 356.617,205.492 h 2.875 c 13.875,0 20.453,-1.133 20.453,-15.523 0,-11.41 -3.082,-17.473 -19.84,-17.473 h -3.488 z m 9.145,-63.933 h -9.145 v 28.574 h 4.934 c 21.582,0 29.285,10.996 29.285,19.426 0,9.046 -5.961,18.293 -24.973,18.293 h -27.16 v -2.36 h 7.945 v -63.933 h -8.843 v -2.364 h 27.957 v 2.364 0"
         style="fill:#3b454b;fill-opacity:1;fill-rule:evenodd;stroke:none"
         id="path78" />
      <path
         d="m 92.2773,69.6445 c -0.5039,2.4649 -2.5078,4.4024 -4.9921,4.8164 -3.3477,0.5625 -6.0821,3.043 -6.961,6.3204 l -2.875,14.9218 2.5235,0.4922 2.8476,-14.789 c 0.6289,-2.2891 2.5508,-4.0196 4.8945,-4.4141 3.5235,-0.5899 6.3672,-3.3359 7.0782,-6.8359 z M 104.02,49.5 h 6.949 c 0.554,0 0.976,0.4961 0.894,1.0469 l -3.07,20.2617 c -0.48,2.3516 -2.355,4.2734 -4.863,4.6953 -2.367,0.3945 -4.1644,2.1289 -4.7659,4.2969 l -3.8008,20.3402 c -0.3633,2.132 -1.2891,4.027 -2.5977,5.562 -0.7734,-1.031 -1.789,-1.859 -3.0156,-2.48 l 1.3633,-8.0199 -2.5313,-0.4297 -1.2929,7.5786 c -0.6875,-0.153 -1.3711,-0.235 -2.0313,-0.235 -5.4844,0 -8.1797,5.25 -8.3242,5.344 C 70.7305,102.539 72.418,92.6328 72.418,92.6328 l 3.1836,-17.0703 0.0078,-0.0273 c 0.4179,-1.4414 1.625,-2.5391 3.0976,-2.8282 3.2618,-0.6406 6,-2.8476 7.1836,-5.9531 0.2422,-0.6328 0.3594,-0.9766 0.4414,-1.5195 L 89.0898,46.793 c 0.0821,-0.5821 0.0665,-1.1446 -0.039,-1.6836 h 9.1875 c 1.6719,0 3.0667,1.1719 3.4137,2.7383 L 99.6797,62.2695 102.223,62.6172 104.02,49.5 v 0"
         style="fill:#f9ac36;fill-opacity:1;fill-rule:evenodd;stroke:none"
         id="path80" />
      <path
         d="m 58.8984,124.82 c -4.3359,1.414 -8.2929,-0.148 -10.8632,-2.75 -3.9024,-3.957 0.5078,-13.054 1.3711,-13.906 0.4453,-0.441 0.9843,-0.742 1.4023,-0.937 3.8516,-6.379 8.4922,-4.629 9.3789,-4.34 v 0 c 3.1406,1.027 4.4922,3.215 4.9063,5.691 0.7968,4.781 -1.5782,9.055 -1.5782,9.055 l -3.0039,-1.082 1.6875,-4.692 c 0.2344,-0.648 -0.082,-1.367 -0.7226,-1.625 l -2.8008,-1.136 -0.9688,2.382 1.6563,0.668 -1.707,4.743 c -0.1172,0.32 -0.0977,0.672 0.0468,0.976 0.1446,0.313 0.4063,0.551 0.7266,0.664 l 3.9219,1.414 -0.3828,0.758 c 0,0 -0.2618,0.57 -0.875,1.219 -0.0743,0.074 -0.8477,2.461 -2.1954,2.898"
         style="fill:#f9ac36;fill-opacity:1;fill-rule:evenodd;stroke:none"
         id="path82" />
      <path
         d="m 85.8906,119.336 3.5039,1.258 c 0,0 -0.5,1.14 -1.0703,1.66 0,0 -0.8125,2.121 -1.9101,2.574 -0.6719,0.277 -5.4844,1.914 -9.8946,-2.445 -3.6172,-3.574 0.461,-11.789 1.2383,-12.555 0.4024,-0.398 0.8867,-0.672 1.2656,-0.844 2.6055,-4.472 6.0586,-4.793 8.4688,-3.918 2.832,0.926 4.0625,2.903 4.4336,5.137 0.7265,4.481 -1.3789,8.078 -1.3789,8.078 l -2.5703,-0.926 1.4804,-4.121 c 0.2227,-0.621 -0.0625,-1.312 -0.6601,-1.597 l -2.7031,-1.282 -1.1016,2.325 1.6484,0.781 -1.5195,4.23 c -0.1133,0.321 -0.1055,0.672 0.043,0.981 0.1445,0.312 0.4062,0.547 0.7265,0.664"
         style="fill:#f9ac36;fill-opacity:1;fill-rule:evenodd;stroke:none"
         id="path84" />
      <path
         d="m 205.871,69.6445 -2.519,0.5118 c 0.711,3.5 3.558,6.246 7.082,6.8359 2.343,0.3945 4.257,2.125 4.89,4.4141 l 2.852,14.789 2.519,-0.4922 -2.851,-14.8281 -0.024,-0.0937 c -0.879,-3.2774 -3.613,-5.7579 -6.961,-6.3204 -2.484,-0.414 -4.484,-2.3515 -4.988,-4.8164 z m 5.945,-4.4101 c 0.082,0.5429 0.196,0.8867 0.442,1.5195 1.18,3.1055 3.922,5.3125 7.183,5.9531 1.469,0.2891 2.676,1.3868 3.098,2.8282 l 0.004,0.0273 3.187,17.0703 c 0,0 1.688,9.9062 -4.519,14.8282 -0.145,-0.094 -2.84,-5.344 -8.316,-5.344 -0.668,0 -1.352,0.082 -2.04,0.235 l -1.289,-7.5786 -2.535,0.4297 1.364,8.0199 c -1.227,0.621 -2.243,1.449 -3.016,2.48 -1.309,-1.535 -2.234,-3.43 -2.594,-5.562 L 198.98,79.8008 c -0.597,-2.168 -2.402,-3.9024 -4.761,-4.2969 -2.508,-0.4219 -4.387,-2.3437 -4.864,-4.6953 L 186.277,50.5469 C 186.195,49.9961 186.621,49.5 187.176,49.5 h 6.953 l 1.793,13.1172 2.547,-0.3477 -1.973,-14.4218 c 0.348,-1.5664 1.738,-2.7383 3.41,-2.7383 h 9.192 c -0.106,0.539 -0.125,1.1015 -0.039,1.6836 l 2.757,18.4414 v 0"
         style="fill:#f9ac36;fill-opacity:1;fill-rule:evenodd;stroke:none"
         id="path86" />
      <path
         d="m 237.637,116.551 -3,1.082 c 0,0 -2.379,-4.274 -1.582,-9.055 0.414,-2.476 1.765,-4.664 4.906,-5.691 0.883,-0.289 5.523,-2.039 9.379,4.34 0.414,0.195 0.953,0.496 1.402,0.937 0.863,0.852 5.274,9.949 1.367,13.906 -2.57,2.602 -6.527,4.164 -10.863,2.75 -1.348,-0.437 -2.117,-2.824 -2.195,-2.898 h 0.004 c -0.617,-0.649 -0.875,-1.219 -0.875,-1.219 l -0.387,-0.758 3.922,-1.414 c 0.324,-0.113 0.586,-0.351 0.726,-0.664 0.145,-0.304 0.164,-0.656 0.047,-0.976 l -1.707,-4.743 1.657,-0.668 -0.965,-2.382 -2.805,1.136 c -0.641,0.258 -0.957,0.977 -0.723,1.625 l 1.692,4.692"
         style="fill:#f9ac36;fill-opacity:1;fill-rule:evenodd;stroke:none"
         id="path88" />
      <path
         d="m 210.172,117.355 -2.567,0.926 c 0,0 -2.109,-3.597 -1.378,-8.078 0.363,-2.234 1.593,-4.211 4.425,-5.137 h 0.004 c 2.407,-0.875 5.864,-0.554 8.465,3.918 0.379,0.172 0.863,0.446 1.27,0.844 0.781,0.766 4.855,8.981 1.234,12.555 -4.406,4.359 -9.215,2.722 -9.895,2.445 -1.097,-0.453 -1.902,-2.574 -1.902,-2.574 -0.578,-0.52 -1.078,-1.66 -1.078,-1.66 l 3.504,-1.258 c 0.32,-0.117 0.582,-0.352 0.726,-0.664 0.149,-0.309 0.165,-0.66 0.051,-0.981 l -1.527,-4.23 1.648,-0.781 -1.101,-2.325 -2.703,1.282 c -0.598,0.285 -0.879,0.976 -0.657,1.597 l 1.481,4.121"
         style="fill:#f9ac36;fill-opacity:1;fill-rule:evenodd;stroke:none"
         id="path90" />
      <path
         d="m 82.207,294.449 v -9.375 h 16.375 v 9.375 h -6.4179 v -4.687 h -3.543 v 4.687 H 82.207"
         style="fill:#f9ac36;fill-opacity:1;fill-rule:evenodd;stroke:none"
         id="path92" />
      <path
         d="m 38.4844,215.41 h 64.6176 v 6.254 H 38.4844 v -6.254"
         style="fill:#f9ac36;fill-opacity:1;fill-rule:evenodd;stroke:none"
         id="path94" />
      <path
         d="m 203.879,208.23 v -9.378 h 16.371 v 9.378 h -6.414 v -4.691 h -3.543 v 4.691 h -6.414"
         style="fill:#f9ac36;fill-opacity:1;fill-rule:evenodd;stroke:none"
         id="path96" />
      <path
         d="m 243.074,208.23 v -9.378 h 16.379 v 9.378 h -6.418 v -4.691 h -3.543 v 4.691 h -6.418"
         style="fill:#f9ac36;fill-opacity:1;fill-rule:evenodd;stroke:none"
         id="path98" />
      <path
         d="m 239.539,210.855 h -6.101 v -5.253 h -3.547 v 5.253 h -6.098 v -12.003 h 15.746 v 12.003"
         style="fill:#f9ac36;fill-opacity:1;fill-rule:evenodd;stroke:none"
         id="path100" />
      <path
         d="m 199.355,129.188 h 64.618 v 6.257 h -64.618 v -6.257"
         style="fill:#f9ac36;fill-opacity:1;fill-rule:evenodd;stroke:none"
         id="path102" />
      <path
         d="m 231.664,195.77 h -35.117 l 3.59,-6.25 h 63.054 l 3.59,6.25 h -35.117"
         style="fill:#f9ac36;fill-opacity:1;fill-rule:evenodd;stroke:none"
         id="path104" />
      <path
         d="m 247.285,166.531 h -3.191 v 9.809 c 0,0.875 0.719,1.594 1.597,1.594 0.879,0 1.594,-0.719 1.594,-1.594 z m -28.082,0 h -3.191 v 9.809 c 0,0.875 0.718,1.594 1.597,1.594 0.875,0 1.594,-0.719 1.594,-1.594 z m 40.25,19.727 h -55.574 l -4.524,-47.52 h 26.356 v 14.668 c 0,3.313 2.664,6.004 5.953,6.004 3.285,0 5.949,-2.691 5.949,-6.004 v -14.668 h 26.36 l -4.52,47.52 v 0"
         style="fill:#f9ac36;fill-opacity:1;fill-rule:evenodd;stroke:none"
         id="path106" />
      <path
         d="m 151.855,143.641 h -2.929 c -0.711,0 -1.289,0.578 -1.289,1.285 v 6.254 h -4.231 v 2.57 h 5.52 c 0.711,0 1.281,-0.578 1.281,-1.289 v -6.25 h 1.648 z m -11.464,14.289 c 0,0 -1.418,-6.328 -0.489,-10.813 1.438,-6.922 5.227,-8.898 9.203,-8.898 3.981,0 7.704,1.929 9.208,8.898 0.964,4.473 -0.493,10.813 -0.493,10.813 h -17.429 v 0"
         style="fill:#f9ac36;fill-opacity:1;fill-rule:evenodd;stroke:none"
         id="path108" />
      <path
         d="m 228.871,225.418 v 0.012 c -0.465,0.3 -0.887,0.699 -1.223,1.183 -1.359,1.942 -0.937,4.586 0.95,5.907 l 1.816,1.269 c -1.301,2.145 -2.051,4.672 -2.051,7.371 0,1.742 -1.34,3.16 -2.98,3.16 -0.805,0 -1.602,0.071 -2.383,0.207 l -1.441,-1.023 c -9.012,-6.371 -8.297,-14.414 -2.243,-18.086 h -0.015 c 0,-2.371 -1.867,-4.289 -4.164,-4.289 -3.071,0 -5.555,-2.566 -5.555,-5.731 h 16.66 l 2.629,10.02"
         style="fill:#f9ac36;fill-opacity:1;fill-rule:evenodd;stroke:none"
         id="path110" />
      <path
         d="m 219.285,292.852 c 0.559,-1.422 -0.105,-3.039 -1.484,-3.618 -1.379,-0.578 -2.949,0.11 -3.512,1.532 z m -10.039,-8.051 h -7.363 v -1.668 c 0,-0.801 0.625,-1.453 1.406,-1.453 h 4.211 c 2.332,0 4.223,-1.813 4.223,-4.348 v -7.387 c 2.183,2.793 5.433,5.266 10.55,5.274 h 0.317 c 3.953,0 7.715,-1.746 10.312,-4.801 l 5.856,-6.801 c -0.418,6.403 -1.52,16.391 -4.36,20.668 l 2.45,0.824 c 0,0 -1.875,3.528 -5.395,5.262 l 2.188,0.887 c 0,0 -5.828,6.047 -16.262,5.805 -6.117,-0.141 -7.059,-3.786 -7.059,-3.786 h -7.504 c -0.515,0 -0.933,-0.425 -0.933,-0.964 v -4.18 h 7.363 c 0.895,0 1.613,-0.742 1.613,-1.664 0,-0.922 -0.718,-1.668 -1.613,-1.668 v 0"
         style="fill:#f9ac36;fill-opacity:1;fill-rule:evenodd;stroke:none"
         id="path112" />
      <path
         d="m 68.3203,146.313 1.8125,1.265 c -1.2969,2.145 -2.0469,4.672 -2.0469,7.375 0,1.738 -1.3398,3.152 -2.9843,3.152 -0.8047,0 -1.5977,0.071 -2.3789,0.211 l -1.4454,-1.019 c -9.0117,-6.375 -8.2968,-14.422 -2.2421,-18.09 h -0.0118 c 0,-2.371 -1.8671,-4.293 -4.1679,-4.293 -3.0664,0 -5.5508,-2.562 -5.5508,-5.726 h 16.6562 l 2.6329,10.019 v 0.012 c -0.4688,0.301 -0.8868,0.699 -1.2266,1.179 -1.3594,1.946 -0.9336,4.59 0.9531,5.915"
         style="fill:#f9ac36;fill-opacity:1;fill-rule:evenodd;stroke:none"
         id="path114" />
      <path
         d="m 59.0039,206.641 c 0.5625,-1.422 -0.1055,-3.039 -1.4844,-3.618 -1.3789,-0.574 -2.9492,0.11 -3.5039,1.532 z m 2.9883,-17.633 h 0.3164 c 3.957,0 7.7148,-1.75 10.3125,-4.801 l 5.8555,-6.801 c -0.418,6.407 -1.5157,16.391 -4.3555,20.668 l 2.4453,0.828 c 0,0 -1.8711,3.524 -5.3906,5.254 l 2.1797,0.891 c 0,0 -5.8164,6.047 -16.2539,5.808 -6.1172,-0.148 -7.0625,-3.785 -7.0625,-3.785 h -7.5 c -0.5196,0 -0.9414,-0.429 -0.9414,-0.968 v -4.18 h 7.3671 c 0.8946,0 1.6172,-0.742 1.6172,-1.664 0,-0.922 -0.7226,-1.664 -1.6172,-1.664 h -7.3671 v -1.672 c 0,-0.797 0.6289,-1.449 1.4101,-1.449 h 4.2188 c 2.3281,0 4.2148,-1.817 4.2148,-4.352 v -7.387 c 2.1797,2.797 5.4336,5.258 10.5508,5.274 v 0"
         style="fill:#f9ac36;fill-opacity:1;fill-rule:evenodd;stroke:none"
         id="path116" />
      <path
         d="m 90.8906,202.84 c -3.8203,-3.875 -3.8789,-10.231 -0.1211,-14.168 l 1.4649,1.48 c 1.6406,1.25 3.9648,1.102 5.4297,-0.437 l 1.9843,2.008 c -1.8476,1.937 -4.5039,2.558 -6.875,1.855 0.3516,0.824 0.8516,1.582 1.4961,2.238 1.3243,1.34 3.0743,2.071 4.9297,2.051 l 0.0196,2.867 c -2.5977,0.024 -5.043,-1.004 -6.8946,-2.882 -0.6133,-0.618 -1.1328,-1.305 -1.5547,-2.047 0.0235,1.816 0.711,3.625 2.0664,4.996 l -1.9453,2.039"
         style="fill:#f9ac36;fill-opacity:1;fill-rule:evenodd;stroke:none"
         id="path118" />
      <path
         d="m 57.3125,163.973 c 2.0039,-2.035 4.75,-3.293 7.793,-3.293 3.0664,0 5.5508,-2.563 5.5508,-5.723 0,-6.328 4.9765,-11.453 11.1093,-11.453 2.2969,0 4.1602,-1.918 4.1602,-4.289 0,-2.375 -1.8633,-4.297 -4.1602,-4.297 -3.0664,0 -5.5547,-2.563 -5.5547,-5.727 h 16.6602 v 14.313 l -6.8828,13.016 c 3.0625,-2.153 7.2617,-1.993 10.1758,0.64 3.4609,3.125 3.8086,8.551 0.7773,12.121 l -9.1484,10.762 c -1.5157,1.785 -1.3399,4.496 0.3867,6.059 l 0.7578,0.761 -3.6602,4.305 -0.7539,-0.762 c -4.0351,-3.644 -4.4453,-9.972 -0.9062,-14.133 l 9.1484,-10.765 c 1.0117,-1.188 0.8907,-3 -0.2578,-4.039 -1.1562,-1.043 -2.9101,-0.926 -3.918,0.265 l -17.9179,20.805 c -2.2617,2.664 -5.4571,3.981 -8.6406,3.899 -4.8477,0 -8.0118,-2.543 -10.6329,-7.606 l -7.5,-15.289 c -0.6601,-2.273 -2.9804,-3.566 -5.1875,-2.883 -2.9375,0.903 -6.0312,-0.82 -6.9101,-3.847 l 17.289,-5.333 8.2227,12.493"
         style="fill:#f9ac36;fill-opacity:1;fill-rule:evenodd;stroke:none"
         id="path120" />
      <path
         d="m 171.195,277.383 c -1.382,-0.735 -2.961,-1.149 -4.629,-1.149 -3.703,0 -6.937,2.036 -8.648,5.051 -1.707,-3.015 -4.938,-5.051 -8.641,-5.051 -3.703,0 -6.941,2.036 -8.644,5.051 -1.707,-3.015 -4.942,-5.051 -8.649,-5.051 -1.664,0 -3.246,0.414 -4.625,1.149 -2.027,-4.231 -2.691,-9.5 -2.609,-14.836 3.387,0.656 5.953,3.648 5.953,7.223 h 2.57 c 0,-4.059 3.301,-7.36 7.36,-7.36 4.055,0 7.359,3.301 7.359,7.36 h 2.571 c 0,-4.059 3.3,-7.36 7.355,-7.36 4.062,0 7.359,3.301 7.359,7.36 h 2.575 c 0,-3.575 2.562,-6.567 5.949,-7.223 0.086,5.336 -0.578,10.605 -2.606,14.836"
         style="fill:#f9ac36;fill-opacity:1;fill-rule:evenodd;stroke:none"
         id="path122" />
      <path
         d="m 172.207,248.496 c 0.684,3.496 1.27,7.453 1.5,11.461 -3.062,0.469 -5.672,2.336 -7.141,4.938 -1.707,-3.016 -4.941,-5.055 -8.648,-5.055 -3.703,0 -6.934,2.039 -8.641,5.055 -1.707,-3.016 -4.941,-5.055 -8.644,-5.055 -3.703,0 -6.938,2.039 -8.649,5.055 -1.468,-2.602 -4.078,-4.469 -7.14,-4.938 0.23,-4.008 0.816,-7.965 1.5,-11.461 1.351,-1.613 3.379,-2.641 5.64,-2.641 4.059,0 7.36,3.301 7.36,7.364 h 2.574 c 0,-4.063 3.305,-7.364 7.359,-7.364 4.055,0 7.356,3.301 7.356,7.364 h 2.574 c 0,-4.063 3.301,-7.364 7.359,-7.364 2.262,0 4.289,1.028 5.641,2.641"
         style="fill:#f9ac36;fill-opacity:1;fill-rule:evenodd;stroke:none"
         id="path124" />
      <path
         d="m 171.352,244.52 c -1.418,-0.786 -3.051,-1.239 -4.786,-1.239 -3.703,0 -6.937,2.043 -8.648,5.059 -1.707,-3.016 -4.938,-5.059 -8.641,-5.059 -3.703,0 -6.941,2.043 -8.644,5.059 -1.707,-3.016 -4.942,-5.059 -8.649,-5.059 -1.73,0 -3.363,0.453 -4.785,1.239 1.137,-4.836 2.242,-8.086 2.242,-8.086 h 39.672 c 0,0 1.102,3.25 2.239,8.086"
         style="fill:#f9ac36;fill-opacity:1;fill-rule:evenodd;stroke:none"
         id="path126" />
      <path
         d="m 128.602,279.633 c 1.015,-0.531 2.164,-0.828 3.382,-0.828 4.059,0 7.36,3.3 7.36,7.355 h 2.574 c 0,-4.055 3.305,-7.355 7.359,-7.355 4.055,0 7.356,3.3 7.356,7.355 h 2.574 c 0,-4.055 3.301,-7.355 7.359,-7.355 1.219,0 2.372,0.297 3.387,0.828 -8.07,13.43 -18.262,17.672 -18.262,17.672 v 10.25 h 6.055 v 4.836 h -6.055 v 6.398 h -4.832 v -6.398 h -6.152 v -4.836 h 6.152 v -10.25 c 0,0 -10.191,-4.242 -18.257,-17.672"
         style="fill:#f9ac36;fill-opacity:1;fill-rule:evenodd;stroke:none"
         id="path128" />
      <path
         d="m 182.508,214.684 -8.332,-4.903 c -1.528,-0.894 -3.516,-0.379 -4.418,1.149 -0.899,1.531 -0.383,3.519 1.148,4.418 l 8.332,4.894 c 1.532,0.903 3.516,0.387 4.414,-1.144 0.899,-1.532 0.383,-3.516 -1.144,-4.414 z m 5.32,6.875 c -2.25,3.82 -7.215,5.109 -11.039,2.859 l -1.391,-0.816 -6.035,10.261 h -7.476 l 7.945,-13.535 -1.383,-0.812 c -3.828,-2.254 -5.117,-7.219 -2.867,-11.043 2.25,-3.825 7.215,-5.118 11.039,-2.864 l 1.391,0.817 c 0.902,-1.539 2.879,-2.051 4.418,-1.145 1.531,0.903 2.05,2.879 1.144,4.414 l 1.391,0.821 c 3.82,2.246 5.113,7.214 2.863,11.043 v 0"
         style="fill:#f9ac36;fill-opacity:1;fill-rule:evenodd;stroke:none"
         id="path130" />
      <path
         d="m 177.391,316.355 -14.18,-24.117 c 1.473,-1.41 3.012,-3.054 4.543,-4.957 l 4.609,7.836 8.34,-4.902 3.223,5.437 -4.168,2.45 c -0.766,0.449 -1.024,1.445 -0.57,2.211 0.445,0.765 1.441,1.019 2.207,0.57 l 4.168,-2.453 3.371,5.894 -8.344,4.91 2.363,3.852 -5.562,3.269"
         style="fill:#f9ac36;fill-opacity:1;fill-rule:evenodd;stroke:none"
         id="path132" />
      <path
         d="m 112.688,298.43 4.175,2.453 c 0.762,0.449 1.754,0.195 2.207,-0.57 0.45,-0.766 0.192,-1.762 -0.578,-2.211 l -4.168,-2.45 3.223,-5.437 8.344,4.902 4.734,-8.058 c 1.523,1.914 3.051,3.574 4.523,4.996 l -14.289,24.3 -5.558,-3.269 2.359,-3.852 -8.34,-4.91 3.368,-5.894"
         style="fill:#f9ac36;fill-opacity:1;fill-rule:evenodd;stroke:none"
         id="path134" />
      <path
         d="m 114.602,219.098 c 0.898,1.531 2.878,2.047 4.414,1.144 l 8.336,-4.894 c 1.523,-0.899 2.039,-2.887 1.136,-4.418 -0.89,-1.528 -2.883,-2.043 -4.414,-1.149 l -8.328,4.903 c -1.531,0.898 -2.047,2.882 -1.144,4.414 z m 1.226,-13.817 c 1.531,-0.906 3.508,-0.394 4.414,1.145 l 1.391,-0.817 c 3.824,-2.254 8.789,-0.961 11.035,2.864 2.25,3.824 0.965,8.789 -2.859,11.043 l -1.391,0.812 7.953,13.535 h -7.484 l -6.032,-10.261 -1.39,0.816 c -3.824,2.25 -8.789,0.961 -11.035,-2.859 -2.25,-3.829 -0.965,-8.797 2.859,-11.043 l 1.391,-0.821 c -0.903,-1.535 -0.391,-3.511 1.148,-4.414 v 0"
         style="fill:#f9ac36;fill-opacity:1;fill-rule:evenodd;stroke:none"
         id="path136" />
      <path
         d="m 124.227,276.559 c 0.425,1.152 0.929,2.257 1.523,3.296 0.723,1.258 1.457,2.438 2.207,3.555 -8.535,-1.523 -15.039,-8.996 -15.039,-17.965 0,-7.382 4.414,-13.754 10.738,-16.621 -0.394,2.098 -0.746,4.348 -1.008,6.672 -2.804,2.406 -4.589,5.977 -4.589,9.949 0,4.68 2.468,8.797 6.168,11.114"
         style="fill:#f9ac36;fill-opacity:1;fill-rule:evenodd;stroke:none"
         id="path138" />
      <path
         d="m 175.906,255.496 c -0.265,-2.324 -0.617,-4.574 -1.011,-6.672 6.328,2.867 10.738,9.239 10.738,16.621 0,8.969 -6.5,16.442 -15.035,17.965 0.746,-1.117 1.484,-2.297 2.203,-3.555 0.594,-1.039 1.101,-2.144 1.527,-3.296 3.699,-2.317 6.164,-6.434 6.164,-11.114 0,-3.972 -1.781,-7.543 -4.586,-9.949"
         style="fill:#f9ac36;fill-opacity:1;fill-rule:evenodd;stroke:none"
         id="path140" />
      <path
         d="m 157.285,208.676 c 2.117,-8.457 9.547,-11.379 13.602,-11.774 l 0.496,5.118 c -0.07,0.007 -7.332,0.793 -9.113,7.902 -0.813,3.242 -2.485,5.359 -4.387,6.789 -1.27,-1.332 -2.805,-2.426 -4.543,-3.234 1.894,-0.903 3.308,-2.258 3.945,-4.801"
         style="fill:#f9ac36;fill-opacity:1;fill-rule:evenodd;stroke:none"
         id="path142" />
      <path
         d="m 142.078,233.863 c -1.484,-2.082 -2.625,-4.566 -2.605,-7.429 0.027,-2.36 0.683,-4.512 1.863,-6.329 1.824,0.969 3.625,1.512 5.039,1.887 -0.98,1.004 -1.734,2.442 -1.758,4.488 -0.027,2.805 2.266,5.411 4.285,7.383 h -6.824"
         style="fill:#f9ac36;fill-opacity:1;fill-rule:evenodd;stroke:none"
         id="path144" />
      <path
         d="m 136.371,209.922 c -1.785,-7.109 -9.043,-7.895 -9.117,-7.902 l 0.496,-5.118 c 4.055,0.395 11.484,3.317 13.605,11.774 1.008,4.015 3.93,5.074 7.657,6.035 0.355,0.094 0.695,0.184 1.011,0.269 5.586,1.555 9.086,5.946 9.137,11.454 0.028,2.863 -1.121,5.347 -2.601,7.429 h -6.825 c 2.024,-1.972 4.313,-4.578 4.286,-7.383 -0.043,-4.57 -3.774,-6.097 -5.375,-6.542 -0.29,-0.083 -0.598,-0.165 -0.918,-0.25 -3.332,-0.86 -9.532,-2.465 -11.356,-9.766"
         style="fill:#f9ac36;fill-opacity:1;fill-rule:evenodd;stroke:none"
         id="path146" />
      <path
         d="m 128.871,68.3828 h 18.961 v 18.961 h 2.566 v -18.961 h 18.957 V 65.8125 H 150.398 V 46.8516 h -2.566 v 18.9609 h -18.961 z m 7.836,13.0742 8.188,-8.1914 -1.817,-1.8203 -8.187,8.1953 z m 24.816,-0.2617 1.817,-1.8203 -7.664,-7.668 -1.817,1.8203 z m 0,-28.1914 -7.664,7.6641 1.817,1.8203 7.664,-7.668 z m -24.816,-0.2656 -1.816,1.8203 8.187,8.1914 1.817,-1.8164 z M 114.723,32.2734 c 10.972,-3.4961 22.511,-5.3554 34.406,-5.3554 11.891,0 23.418,1.8593 34.379,5.3476 v 69.5704 h -68.785 v -69.5626 0"
         style="fill:#f9ac36;fill-opacity:1;fill-rule:evenodd;stroke:none"
         id="path148" />
      <path
         d="m 183.527,157.602 c 0,18.988 -15.418,34.386 -34.406,34.386 h -0.016 c -18.988,0 -34.398,-15.398 -34.398,-34.386 v -52.805 h 4.43 v 45.933 c 6.316,-2.308 12.648,-1.609 17.906,1.52 0.172,3.285 0.789,6.07 0.828,6.25 l 0.07,0.285 -0.246,1.207 -1.242,6.129 -0.023,0.129 -0.012,0.133 c -0.457,4.633 2.273,6.254 3.172,6.785 2.101,1.246 9.523,4.652 9.523,4.652 0,0 7.387,-3.406 9.489,-4.652 0.898,-0.531 3.632,-2.152 3.175,-6.793 l -0.011,-0.125 -0.028,-0.129 -1.242,-6.129 -0.242,-1.207 0.066,-0.281 c 0.039,-0.184 0.657,-2.957 0.825,-6.231 5.273,-3.148 11.617,-3.859 17.945,-1.543 v -45.933 h 4.437 v 52.805"
         style="fill:#f9ac36;fill-opacity:1;fill-rule:evenodd;stroke:none"
         id="path150" />
      <path
         d="m 132.219,139.441 c 1.597,-5.925 8.562,-10.402 16.886,-10.402 8.336,0 15.309,4.488 16.895,10.43 -2.375,1.875 -4.672,2.859 -6.332,3.379 -0.168,-0.403 -2.586,-7.2 -10.563,-7.2 -7.968,0 -10.386,6.77 -10.562,7.188 -1.664,-0.523 -3.953,-1.516 -6.324,-3.395"
         style="fill:#f9ac36;fill-opacity:1;fill-rule:evenodd;stroke:none"
         id="path152" />
      <path
         d="m 121.875,104.797 h 25.898 c -0.515,2.164 -1.562,3.703 -3.218,4.691 -4.008,2.387 -10.102,0.629 -10.16,0.614 l -0.735,2.464 c 0.293,0.086 7.219,2.098 12.203,-0.863 1.375,-0.82 2.469,-1.93 3.262,-3.32 0.797,1.39 1.883,2.5 3.266,3.32 4.98,2.961 11.906,0.949 12.203,0.863 l -0.367,-1.234 -0.368,-1.23 c -0.062,0.015 -6.156,1.773 -10.164,-0.614 -1.652,-0.988 -2.703,-2.527 -3.218,-4.691 h 25.933 c 0.297,15.016 -1.867,26.172 -8.308,32.789 -2.446,-6.422 -10.024,-11.117 -18.977,-11.117 -8.937,0 -16.508,4.679 -18.961,11.094 -6.426,-6.629 -8.586,-17.774 -8.289,-32.766"
         style="fill:#f9ac36;fill-opacity:1;fill-rule:evenodd;stroke:none"
         id="path154" />
      <path
         d="m 157.309,170.957 c -2.008,1.191 -8.196,4.031 -8.196,4.031 0,0 -6.187,-2.84 -8.195,-4.031 -0.977,-0.578 -2.199,-1.523 -1.926,-4.324 l 1.238,-6.129 h 17.766 l 1.238,6.129 c 0.278,2.801 -0.945,3.746 -1.925,4.324"
         style="fill:#f9ac36;fill-opacity:1;fill-rule:evenodd;stroke:none"
         id="path156" />
      <path
         d="m 32.8438,193.316 -2.0665,-18.484 12.8829,-5.934 5.5078,11.215 -7.7813,2.106 c -2.289,0.269 -3.9258,2.398 -3.6601,4.758 0.3476,3.136 -1.836,5.976 -4.8828,6.339"
         style="fill:#f9ac36;fill-opacity:1;fill-rule:evenodd;stroke:none"
         id="path158" />
      <path
         d="m 193.125,279.527 -2.066,-18.484 12.879,-5.934 5.511,11.215 -7.781,2.102 c -2.289,0.273 -3.926,2.402 -3.664,4.762 0.348,3.136 -1.832,5.976 -4.879,6.339"
         style="fill:#f9ac36;fill-opacity:1;fill-rule:evenodd;stroke:none"
         id="path160" />
      <path
         d="m 248.867,247.945 -17.918,20.805 c -2.258,2.664 -5.457,3.984 -8.644,3.898 -4.844,0 -8.008,-2.543 -10.625,-7.609 l -7.508,-15.285 c -0.656,-2.274 -2.977,-3.563 -5.18,-2.883 -2.937,0.902 -6.035,-0.816 -6.91,-3.848 l 17.285,-5.332 8.223,12.493 c 2.004,-2.036 4.754,-3.293 7.797,-3.293 3.066,0 5.551,-2.563 5.551,-5.723 0,-6.328 4.968,-11.453 11.105,-11.453 2.301,0 4.164,-1.922 4.164,-4.293 0,-2.375 -1.863,-4.293 -4.164,-4.293 -3.07,0 -5.551,-2.566 -5.551,-5.727 h 16.66 v 14.313 l -6.886,13.015 c 3.062,-2.152 7.261,-1.996 10.179,0.641 3.461,3.125 3.809,8.551 0.774,12.117 l -9.145,10.77 c -1.519,1.785 -1.344,4.492 0.387,6.055 l 0.434,0.433 c -1.09,1.567 -2.2,3.113 -3.336,4.629 l -0.758,-0.754 c -4.039,-3.648 -4.442,-9.976 -0.906,-14.137 l 9.148,-10.765 c 1.012,-1.188 0.895,-3 -0.258,-4.043 -1.152,-1.039 -2.91,-0.922 -3.918,0.269"
         style="fill:#f9ac36;fill-opacity:1;fill-rule:evenodd;stroke:none"
         id="path162" />
      <path
         d="m 55.1406,262.563 c 0,0.875 0.7188,1.593 1.5977,1.593 0.8711,0 1.5937,-0.718 1.5937,-1.593 v -9.813 h -3.1914 z m 28.086,0 c 0,0.875 0.7187,1.593 1.5937,1.593 0.875,0 1.5938,-0.718 1.5938,-1.593 v -9.813 h -3.1875 z m -41.3125,-1.598 -3.4297,-36.004 h 26.3594 v 14.664 c 0,3.32 2.664,6.008 5.9531,6.008 3.2851,0 5.9492,-2.688 5.9492,-6.008 v -14.664 h 26.3559 l -4.52,47.519 H 49.1484 c -2.5546,-3.691 -4.9648,-7.535 -7.2343,-11.515 v 0"
         style="fill:#f9ac36;fill-opacity:1;fill-rule:evenodd;stroke:none"
         id="path164" />
      <path
         d="m 51.4688,275.738 h 50.8552 l 3.586,6.254 H 56.3008 c -1.6602,-2.031 -3.2695,-4.117 -4.832,-6.254"
         style="fill:#f9ac36;fill-opacity:1;fill-rule:evenodd;stroke:none"
         id="path166" />
      <path
         d="m 62.9219,289.555 v -4.481 h 15.7422 v 11.996 h -6.0938 v -5.246 h -3.5469 v 3.84 c -2.0937,-1.965 -4.125,-4.004 -6.1015,-6.109"
         style="fill:#f9ac36;fill-opacity:1;fill-rule:evenodd;stroke:none"
         id="path168" />
      <path
         d="m 65.6211,63.6914 c -0.5703,2.7852 -2.8359,4.9688 -5.6406,5.4375 -3.6524,0.6133 -6.6328,3.3203 -7.5977,6.9063 l -3.1836,16.5156 2.5196,0.4883 3.1601,-16.3789 c 0.7149,-2.5938 2.8789,-4.5508 5.5313,-4.9922 3.8437,-0.6485 6.9492,-3.6446 7.7265,-7.4649 z m 12.3867,-19.8594 6.043,0.1328 c 1.582,0 2.7305,0.8829 2.4961,2.4493 l -2.793,18.6367 c -0.5625,2.5547 -2.6211,4.6445 -5.3633,5.0976 -2.5898,0.4375 -4.5703,2.3204 -5.2539,4.6836 l -4.2304,22.6016 c -0.4219,2.4609 -1.5157,4.6364 -3.0625,6.3714 -0.8516,-1.141 -1.9688,-2.059 -3.336,-2.739 l 1.5547,-9.1207 -2.5312,-0.4297 -1.4805,8.6684 c -0.793,-0.1918 -1.582,-0.2699 -2.3438,-0.2895 -5.7265,-0.1328 -8.8203,5.6485 -8.9375,5.7305 -3.3672,-2.648 -4.9531,-7.1094 -4.8359,-12.0078 0,-0.0391 0.1523,-5.8867 0.332,-12.8242 3.2344,-5.3086 6.75,-10.375 10.5196,-15.1524 6.2109,-7.8789 13.1171,-14.9843 20.5429,-21.1523 l -1.5117,11.0234 2.5508,0.3477 1.6406,-12.0274 v 0"
         style="fill:#f9ac36;fill-opacity:1;fill-rule:evenodd;stroke:none"
         id="path170" />
      <path
         d="m 237.734,71.668 c 2.657,0.4414 4.821,2.3984 5.536,4.9922 l 3.152,16.3789 2.527,-0.4883 -3.187,-16.5156 c -0.961,-3.586 -3.942,-6.293 -7.598,-6.9063 -2.805,-0.4687 -5.07,-2.6523 -5.633,-5.4375 l -2.523,0.5117 c 0.781,3.8203 3.887,6.8164 7.726,7.4649 z m 5.711,-6.0274 c 3.735,4.7344 7.227,9.7539 10.438,15.0078 0.176,6.9961 0.328,12.9297 0.328,12.9688 0.113,4.8984 -1.469,9.3598 -4.836,12.0078 -0.117,-0.082 -3.211,-5.8633 -8.937,-5.7305 -0.762,0.0196 -1.551,0.0977 -2.344,0.2895 l -1.473,-8.6684 -2.539,0.4297 1.555,9.1207 c -1.367,0.68 -2.481,1.598 -3.336,2.739 -1.543,-1.735 -2.641,-3.9105 -3.059,-6.3714 l -4.23,-22.6016 c -0.684,-2.3632 -2.668,-4.2461 -5.254,-4.6836 -2.742,-0.4531 -4.805,-2.5429 -5.363,-5.0976 l -2.793,-18.6367 c -0.235,-1.5664 0.91,-2.4493 2.496,-2.4493 0,0 0.609,-0.0078 1.441,-0.0234 l 0.031,0.0039 0.133,-0.0039 c 1.754,-0.0351 4.324,-0.082 4.434,-0.1094 l 1.648,12.0274 2.543,-0.3477 -1.519,-11.1015 c 7.457,6.1836 14.398,13.3203 20.636,21.2304 v 0"
         style="fill:#f9ac36;fill-opacity:1;fill-rule:evenodd;stroke:none"
         id="path172" />
      <path
         d="m 71.2227,322.605 0.0195,0.02 c 1.625,1.113 3.5273,1.707 5.5,1.707 3.1992,0 6.1875,-1.574 8.0039,-4.211 1.4727,-2.137 2.0156,-4.715 1.543,-7.269 -0.4688,-2.539 -1.8946,-4.743 -4.0196,-6.215 -2.6757,-1.926 -5.2851,-3.965 -7.8203,-6.114 0.7617,-0.125 1.5352,-0.187 2.3086,-0.187 2.1836,0 4.4024,0.504 6.4805,1.566 l 24.8357,14.121 c 3.188,1.629 5.5,4.29 6.742,7.368 0.387,0.953 0.672,1.945 0.84,2.964 0.496,2.93 0.094,6.036 -1.359,8.879 -0.914,1.789 -2.152,3.305 -3.613,4.512 -0.86,0.707 -1.789,1.309 -2.774,1.793 -1.961,0.973 -4.133,1.488 -6.347,1.488 -2.1802,0 -4.4028,-0.504 -6.481,-1.566 L 70.2461,327.34 c -4.5508,-2.324 -7.3242,-6.754 -7.7266,-11.496 2.8203,2.363 5.7149,4.613 8.6797,6.746 l 0.0235,0.015"
         style="fill:#f9ac36;fill-opacity:1;fill-rule:evenodd;stroke:none"
         id="path174" />
      <path
         d="m 22.7227,88.0703 c 1.4453,0 2.9101,0.2188 4.3593,0.6836 2.9766,0.957 5.4258,2.793 7.1446,5.1328 0.6172,0.8399 1.1484,1.7461 1.5625,2.7031 1.3672,3.0821 1.6445,6.6562 0.539,10.1212 l -8.4414,27.297 c -1.082,3.375 -3.3047,6.07 -6.0976,7.793 0.5547,-3.297 1.1992,-6.578 1.9336,-9.828 1.2578,-5.192 -1.9258,-10.442 -7.1211,-11.723 -0.7578,-0.184 -1.543,-0.281 -2.3203,-0.281 -4.48052,0 -8.35161,3.039 -9.42192,7.398 l -0.00391,0.02 -0.00391,0.019 c -0.80078,3.516 -1.51172,7.063 -2.12109,10.637 -2.57422,-3.555 -3.484376,-8.25 -2.04297,-12.746 L 9.12891,98 C 10.543,93.5898 13.8984,90.3398 17.9531,88.8984 v -0.0039 c 1.0235,-0.3632 2.0977,-0.6132 3.1914,-0.7304 0.5235,-0.0625 1.0508,-0.0938 1.5782,-0.0938"
         style="fill:#f9ac36;fill-opacity:1;fill-rule:evenodd;stroke:none"
         id="path176" />
      <path
         d="m 182.57,326.359 c 0.172,-1.019 0.457,-2.015 0.84,-2.968 1.242,-3.078 3.559,-5.743 6.75,-7.368 l 24.832,-14.121 c 2.078,-1.062 4.297,-1.566 6.481,-1.566 0.773,0 1.547,0.062 2.308,0.187 -2.543,2.149 -5.148,4.184 -7.824,6.114 -2.121,1.472 -3.547,3.676 -4.023,6.215 -0.469,2.554 0.078,5.132 1.55,7.269 1.809,2.637 4.805,4.211 8.004,4.211 1.969,0 3.875,-0.594 5.496,-1.707 l 0.024,-0.02 0.023,-0.015 c 2.961,-2.133 5.856,-4.383 8.68,-6.75 -0.41,4.746 -3.18,9.176 -7.731,11.5 l -24.832,14.121 c -2.082,1.062 -4.3,1.566 -6.484,1.566 -2.211,0 -4.383,-0.515 -6.344,-1.488 -0.984,-0.484 -1.914,-1.086 -2.769,-1.793 -1.461,-1.203 -2.703,-2.719 -3.617,-4.512 -1.454,-2.843 -1.86,-5.949 -1.364,-8.875"
         style="fill:#f9ac36;fill-opacity:1;fill-rule:evenodd;stroke:none"
         id="path178" />
      <path
         d="m 18.5313,199.766 c 0.1367,0.941 0.2773,1.886 0.4257,2.824 0.6328,3.98 1.3868,7.918 2.2618,11.789 0.9414,3.832 -1.3985,7.695 -5.2266,8.637 -0.5742,0.144 -1.1484,0.211 -1.7109,0.211 -3.2149,0 -6.12505,-2.184 -6.92583,-5.438 C 6.41797,213.68 5.60938,209.516 4.92969,205.293 4.77344,204.324 4.625,203.355 4.48047,202.379 v 0 C 3.08203,192.801 2.35156,182.953 2.35156,172.898 v -0.031 c 0,-10.058 0.73438,-19.91 2.13282,-29.5 0.14453,-0.976 0.28906,-1.949 0.44531,-2.922 0.68359,-4.211 1.48828,-8.367 2.42578,-12.465 0.80078,-3.257 3.71483,-5.437 6.92583,-5.437 0.5625,0 1.1367,0.062 1.7109,0.207 3.8281,0.938 6.168,4.805 5.2266,8.633 -0.875,3.867 -1.629,7.785 -2.2579,11.762 -0.1484,0.941 -0.289,1.878 -0.4257,2.824 -1.25,8.742 -1.9063,17.726 -1.9063,26.898 v 0.031 c 0,9.161 0.6524,18.141 1.9024,26.868"
         style="fill:#f9ac36;fill-opacity:1;fill-rule:evenodd;stroke:none"
         id="path180" />
      <path
         d="m 82.6445,19.9453 c 2.4102,0 4.7618,1.2227 6.1055,3.4297 2.0547,3.3672 0.9844,7.7617 -2.3828,9.8125 -3.3086,2.1367 -6.5313,4.4258 -9.6602,6.8867 -0.7382,0.5742 -1.4726,1.1641 -2.1992,1.7578 C 58.7031,54.75 45.3516,71.6563 35.4688,91.3438 33.5156,89.0703 30.9297,87.2891 27.8633,86.3086 26.1992,85.7695 24.4648,85.5039 22.7227,85.5039 H 22.4414 C 33.3867,63.5273 48.332,44.6523 66.1055,30.2734 v 0 c 0.7695,-0.625 1.5429,-1.2421 2.3242,-1.8476 3.4062,-2.6485 6.9141,-5.1289 10.5117,-7.4414 1.1563,-0.7031 2.4375,-1.0391 3.7031,-1.0391"
         style="fill:#f9ac36;fill-opacity:1;fill-rule:evenodd;stroke:none"
         id="path182" />
      <path
         d="m 220.652,18.8047 -0.027,-0.0156 c -1.523,-0.9258 -3.262,-1.4141 -5.039,-1.4141 -3.422,0 -6.523,1.7422 -8.305,4.6641 -1.347,2.2148 -1.754,4.8242 -1.14,7.3437 0.609,2.5078 2.156,4.6328 4.355,5.9844 2.754,1.7734 5.445,3.6719 8.082,5.6836 -0.98,0.2109 -1.988,0.3203 -3.008,0.3203 -1.984,0 -3.996,-0.4141 -5.914,-1.2891 L 184.078,27.3594 c -3.187,-1.4531 -5.586,-3.9375 -6.973,-6.875 -0.445,-0.9297 -0.785,-1.9102 -1.011,-2.9102 -0.692,-2.9648 -0.442,-6.1601 0.914,-9.1367 0.805,-1.76172 1.926,-3.29297 3.265,-4.53516 0.813,-0.7539 1.711,-1.41015 2.668,-1.95312 2.141,-1.218751 4.579,-1.8750012 7.071,-1.8750012 1.976,0 3.992,0.4179692 5.914,1.2929712 l 25.57,12.72261 c 4.621,2.1055 7.578,6.3633 8.227,11.043 -2.95,-2.2226 -5.961,-4.3281 -9.043,-6.3086 l -0.028,-0.0195"
         style="fill:#f9ac36;fill-opacity:1;fill-rule:evenodd;stroke:none"
         id="path184" />
      <path
         d="m 122.141,17.5742 c -0.231,1.0039 -0.571,1.9805 -1.016,2.9102 -1.387,2.9375 -3.785,5.4219 -6.977,6.875 L 88.5742,40.082 c -1.9219,0.875 -3.9336,1.2891 -5.914,1.2891 -1.0196,0 -2.0274,-0.1094 -3.0079,-0.3203 2.6329,-2.0117 5.3243,-3.9102 8.0782,-5.6836 4.5508,-2.793 5.9922,-8.7656 3.2148,-13.3281 -1.7734,-2.9219 -4.8789,-4.6641 -8.3008,-4.6641 -1.7773,0 -3.5195,0.4883 -5.039,1.4141 l -0.0274,0.0156 -0.0273,0.0195 c -3.082,1.9805 -6.0977,4.086 -9.0469,6.3086 0.6484,-4.6797 3.6133,-8.9375 8.2266,-11.043 L 102.305,1.36719 c 1.922,-0.875002 3.933,-1.2929712 5.914,-1.2929712 2.484,0 4.929,0.6562502 7.066,1.8789112 0.961,0.53906 1.856,1.19531 2.672,1.95312 h 0.004 c 1.336,1.24219 2.457,2.76953 3.258,4.53125 1.359,2.9766 1.605,6.1719 0.922,9.1367"
         style="fill:#f9ac36;fill-opacity:1;fill-rule:evenodd;stroke:none"
         id="path186" />
      <path
         d="m 279.695,145.969 c -0.136,-0.946 -0.277,-1.883 -0.429,-2.824 v -0.004 c -0.633,-3.977 -1.383,-7.891 -2.254,-11.758 -0.946,-3.828 1.398,-7.695 5.226,-8.633 0.571,-0.145 1.149,-0.207 1.711,-0.207 3.211,0 6.125,2.18 6.926,5.437 0.934,4.098 1.742,8.254 2.418,12.465 0.16,0.973 0.309,1.946 0.453,2.922 1.399,9.59 2.133,19.442 2.133,29.5 v 0.031 c 0,10.055 -0.734,19.903 -2.129,29.481 -0.145,0.976 -0.293,1.945 -0.449,2.914 -0.68,4.223 -1.492,8.387 -2.426,12.496 -0.801,3.254 -3.715,5.438 -6.926,5.438 -0.562,0 -1.14,-0.067 -1.711,-0.211 -3.828,-0.942 -6.172,-4.805 -5.226,-8.637 0.871,-3.871 1.629,-7.809 2.258,-11.789 0.152,-0.938 0.293,-1.883 0.425,-2.824 1.25,-8.727 1.903,-17.707 1.903,-26.868 v -0.031 c 0,-9.172 -0.653,-18.156 -1.903,-26.898"
         style="fill:#f9ac36;fill-opacity:1;fill-rule:evenodd;stroke:none"
         id="path188" />
      <path
         d="m 293.383,127.406 -0.008,-0.019 -0.004,-0.02 c -1.066,-4.359 -4.941,-7.398 -9.422,-7.398 -0.781,0 -1.558,0.097 -2.32,0.281 -5.191,1.281 -8.379,6.531 -7.121,11.723 0.734,3.25 1.379,6.531 1.933,9.828 -2.796,-1.723 -5.015,-4.418 -6.101,-7.793 l -8.438,-27.297 c -1.113,-3.465 -0.828,-7.0391 0.536,-10.1212 v 0 c 0.421,-0.957 0.949,-1.8632 1.574,-2.707 1.711,-2.3359 4.16,-4.1719 7.133,-5.1289 1.453,-0.4648 2.914,-0.6836 4.363,-0.6836 0.527,0 1.055,0.0313 1.574,0.0938 1.098,0.1172 2.164,0.3672 3.191,0.7304 h 0.004 c 4.051,1.4453 7.411,4.6953 8.825,9.1055 l 8.441,27.297 c 1.437,4.496 0.535,9.187 -2.043,12.742 -0.609,-3.574 -1.32,-7.117 -2.117,-10.633"
         style="fill:#f9ac36;fill-opacity:1;fill-rule:evenodd;stroke:none"
         id="path190" />
      <path
         d="m 173.344,16.9297 c -7.856,-1.7383 -15.957,-2.6484 -24.231,-2.6484 -8.269,0 -16.367,0.9101 -24.222,2.6484 0.496,-3.2188 0.054,-6.5234 -1.328,-9.55861 C 122.859,5.83594 121.941,4.4375 120.848,3.20313 129.992,1.10547 139.445,0 149.113,0 c 9.672,0 19.117,1.10547 28.27,3.20313 -1.094,1.23437 -2.012,2.63281 -2.715,4.16796 -1.383,3.03521 -1.828,6.33981 -1.324,9.55861"
         style="fill:#f9ac36;fill-opacity:1;fill-rule:evenodd;stroke:none"
         id="path192" />
      <path
         d="m 270.363,86.3086 c -3.062,0.9766 -5.644,2.7539 -7.609,5.0273 C 252.879,71.6563 239.531,54.75 223.727,41.832 c -0.731,-0.5937 -1.461,-1.1836 -2.204,-1.7617 -3.132,-2.4531 -6.351,-4.7461 -9.66,-6.8828 -3.367,-2.0508 -4.433,-6.4453 -2.386,-9.8125 1.343,-2.207 3.695,-3.4297 6.109,-3.4297 1.262,0 2.539,0.336 3.703,1.0391 3.598,2.3125 7.102,4.7929 10.508,7.4414 0.781,0.6055 1.558,1.2226 2.332,1.8476 17.769,14.3789 32.715,33.2539 43.66,55.2305 h -0.281 c -1.746,0 -3.477,0.2656 -5.145,0.8047"
         style="fill:#f9ac36;fill-opacity:1;fill-rule:evenodd;stroke:none"
         id="path194" />
      <path
         d="m 4.85156,218.359 0.00391,0.02 0.00391,0.019 c 1.07031,4.36 4.9414,7.395 9.42192,7.395 0.7773,0 1.5625,-0.094 2.3203,-0.277 5.1953,-1.278 8.3789,-6.532 7.1211,-11.723 -0.7383,-3.262 -1.3868,-6.555 -1.9414,-9.867 2.8007,1.726 5.0234,4.422 6.1054,7.801 l 8.4336,27.296 c 1.1133,3.465 0.832,7.047 -0.539,10.129 -0.4141,0.953 -0.9415,1.856 -1.5625,2.7 -1.711,2.336 -4.1602,4.171 -7.1407,5.128 -1.4453,0.465 -2.914,0.684 -4.3593,0.684 -0.5235,0 -1.043,-0.027 -1.5586,-0.086 h -0.0039 c -1.0899,-0.117 -2.1602,-0.367 -3.1797,-0.726 -4.0703,-1.438 -7.4336,-4.696 -8.8516,-9.118 L 0.6875,220.441 c -1.441406,-4.496 -0.535156,-9.187 2.03516,-12.746 0.61718,3.582 1.32031,7.141 2.1289,10.664"
         style="fill:#f9ac36;fill-opacity:1;fill-rule:evenodd;stroke:none"
         id="path196" />
      <path
         d="m 271.145,256.98 c -2.973,-0.957 -5.415,-2.792 -7.133,-5.132 -0.621,-0.84 -1.149,-1.746 -1.563,-2.7 -1.371,-3.082 -1.652,-6.66 -0.543,-10.125 l 8.434,-27.296 c 1.086,-3.379 3.308,-6.075 6.109,-7.801 -0.562,3.312 -1.203,6.605 -1.941,9.867 -1.258,5.191 1.93,10.445 7.121,11.723 0.762,0.183 1.539,0.277 2.32,0.277 4.481,0 8.356,-3.035 9.422,-7.395 l 0.004,-0.019 0.008,-0.02 c 0.805,-3.523 1.512,-7.074 2.125,-10.66 2.57,3.559 3.472,8.246 2.035,12.742 l -8.441,27.293 c -1.414,4.426 -4.786,7.68 -8.848,9.118 -1.024,0.359 -2.094,0.609 -3.188,0.726 -0.511,0.059 -1.039,0.086 -1.558,0.086 -1.445,0 -2.91,-0.219 -4.363,-0.684"
         style="fill:#f9ac36;fill-opacity:1;fill-rule:evenodd;stroke:none"
         id="path198" />
      <path
         d="m 225.527,320.504 c -1.238,0.851 -2.644,1.254 -4.039,1.254 -2.269,0 -4.5,-1.078 -5.883,-3.09 -2.238,-3.25 -1.414,-7.695 1.836,-9.93 3.196,-2.308 6.305,-4.773 9.317,-7.386 0.715,-0.622 1.426,-1.247 2.129,-1.883 13.554,-12.258 25.078,-27.563 33.867,-45.067 2,2.332 4.613,4.067 7.609,5.028 1.672,0.531 3.403,0.804 5.145,0.804 l 0.265,-0.004 c -9.746,19.575 -22.66,36.692 -37.921,50.356 -0.739,0.664 -1.481,1.32 -2.235,1.961 -3.262,2.812 -6.629,5.465 -10.09,7.957"
         style="fill:#f9ac36;fill-opacity:1;fill-rule:evenodd;stroke:none"
         id="path200" />
      <path
         d="m 27.8633,259.43 c 2.9961,-0.957 5.6055,-2.696 7.6133,-5.028 8.7812,17.504 20.3086,32.809 33.8672,45.067 0.7031,0.636 1.4101,1.261 2.1289,1.883 3.0117,2.613 6.1211,5.078 9.3164,7.386 3.2461,2.235 4.0742,6.68 1.8398,9.93 -1.3867,2.012 -3.6211,3.09 -5.8867,3.09 -1.3984,0 -2.8086,-0.403 -4.043,-1.254 -3.4609,-2.492 -6.8242,-5.145 -10.0898,-7.957 -0.75,-0.641 -1.4922,-1.297 -2.2305,-1.957 v -0.004 C 45.1172,296.922 32.1953,279.805 22.4531,260.23 l 0.2657,0.004 c 1.7421,0 3.4765,-0.273 5.1445,-0.804"
         style="fill:#f9ac36;fill-opacity:1;fill-rule:evenodd;stroke:none"
         id="path202" />
      <path
         d="m 118.355,327.16 c 9.879,2.805 20.188,4.289 30.774,4.289 10.582,0 20.875,-1.484 30.742,-4.285 -0.301,3.16 0.297,6.348 1.774,9.238 0.808,1.582 1.839,3 3.046,4.219 -11.394,3.34 -23.308,5.113 -35.578,5.113 -12.265,0 -24.183,-1.773 -35.574,-5.113 1.207,-1.219 2.234,-2.637 3.047,-4.219 1.477,-2.89 2.074,-6.082 1.769,-9.242"
         style="fill:#f9ac36;fill-opacity:1;fill-rule:evenodd;stroke:none"
         id="path204" />
    </g>
  </g>
</svg>
